<?xml version="1.0" encoding="UTF-8"?> <svg xmlns="http://www.w3.org/2000/svg" width="260" height="104" viewBox="0 0 260 104" fill="none"><path d="M5.21234 63.0527L5.68023 64.6252L0 79.5039H4.27159L5.42194 76.3154H11.4121L12.5942 79.5039H16.9652L10.684 63.0527H5.21234ZM8.42696 68.1429L10.1157 72.7779H6.73819L8.42696 68.1429Z" fill="#10231A"></path><path d="M26.7422 63.0518H22.418V79.5099H34.1271V75.781H26.7422V63.0518Z" fill="#10231A"></path><path d="M40.1367 79.504H51.9243V75.7791H44.3795V72.9386H51.2776V69.3218H44.3795V66.744H51.9243V63.0459H40.1367V79.504Z" fill="#10231A"></path><path d="M72.7324 63.0518H68.0634L65.0028 67.7413L62.0226 63.0518H57.2136L62.5044 71.0915L56.9414 79.5059H61.6402L64.9184 74.4396L68.1966 79.5059H72.9996L67.4366 71.0915L72.7324 63.0518Z" fill="#10231A"></path><path d="M84.0371 72.7799L85.7258 68.1429L87.4146 72.7799H84.0371ZM82.1436 63.0527L82.7744 65.1635L77.2969 79.5039H81.5685L82.7218 76.3204H88.709L89.8881 79.5089H94.265L87.9838 63.0527H82.1436Z" fill="#10231A"></path><path d="M110.103 72.1097L103.739 63.0527H99.7148V79.5029H103.876V69.8858L110.774 79.5029H114.269V63.0527H110.103V72.1097Z" fill="#10231A"></path><path d="M126.778 75.783H125.003V66.7489H126.778C129.516 66.7489 131.049 68.4909 131.049 71.2789C131.049 74.0381 129.518 75.7801 126.778 75.7801V75.783ZM126.992 63.0508H120.766V79.5089H126.992C132.176 79.5089 135.315 76.2946 135.315 71.2799C135.315 66.2651 132.175 63.0508 126.992 63.0508Z" fill="#10231A"></path><path d="M141.141 79.504H152.928V75.7791H145.383V72.9386H152.282V69.3218H145.383V66.744H152.928V63.0459H141.141V79.504Z" fill="#10231A"></path><path d="M166.055 70.6354H163.373V66.6696H166.055C167.583 66.6696 168.281 67.4469 168.281 68.6525C168.281 69.8581 167.585 70.6354 166.055 70.6354ZM172.497 68.6525C172.497 65.0615 170.055 63.0498 166.512 63.0498H159.102V79.5079H163.373V74.0649H164.875L168.313 79.505H173.094L169.221 73.6068C170.232 73.2469 171.099 72.5687 171.69 71.6746C172.281 70.7805 172.565 69.7188 172.499 68.6495" fill="#10231A"></path><path d="M201 63.0508H195.979L190.746 70.0445V63.0508H186.422V79.5089H190.746V72.1365L196.141 79.5089H201.241L194.933 70.9328L201 63.0508Z" fill="#10231A"></path><path d="M216.224 72.4042C216.224 74.7321 215.122 75.9407 213.352 75.9407C211.552 75.9407 210.452 74.7321 210.452 72.4042V63.0508H206.156V72.7779C206.156 77.3079 209.002 79.7746 213.352 79.7746C217.702 79.7746 220.52 77.3079 220.52 72.8067V63.0508H216.224V72.4042Z" fill="#10231A"></path><path d="M233.783 70.6354H231.101V66.6696H233.783C235.311 66.6696 236.008 67.4469 236.008 68.6525C236.008 69.8581 235.313 70.6354 233.783 70.6354ZM240.225 68.6525C240.225 65.0615 237.782 63.0498 234.237 63.0498H226.828V79.5079H231.1V74.0649H232.603L236.041 79.505H240.818L236.949 73.6068C237.96 73.2469 238.826 72.5687 239.417 71.6746C240.009 70.7805 240.293 69.7188 240.227 68.6495" fill="#10231A"></path><path d="M245.892 63.0527V66.7489H252.712L245.57 79.3998V79.5049H260V75.78H252.2L259.234 63.1598V63.0527H245.892Z" fill="#10231A"></path><path d="M21.1641 103.816H23.0763V92.5586H21.1641V103.816Z" fill="#10231A"></path><path d="M35.9401 95.4892C37.6139 95.4892 38.5885 96.6611 38.5885 98.5131V103.817H36.7477V98.8085C36.7477 97.8002 36.3086 97.1379 35.4086 97.1379C35.0607 97.1319 34.7223 97.2513 34.4555 97.4742C34.1887 97.6971 34.0115 98.0086 33.9563 98.3515V103.817H32.1175V98.8085C32.1175 97.8002 31.6784 97.1379 30.7784 97.1379C30.4303 97.1318 30.0916 97.2511 29.8245 97.474C29.5574 97.6969 29.3797 98.0085 29.3241 98.3515V103.817H27.4883V95.6706H29.3241V96.3517C29.5761 96.0615 29.8914 95.8328 30.2458 95.6833C30.6003 95.5338 30.9843 95.4674 31.3685 95.4892C31.7865 95.4854 32.1993 95.5815 32.5725 95.7693C32.9458 95.9571 33.2686 96.2312 33.5142 96.5689C33.809 96.2158 34.181 95.935 34.6015 95.7478C35.022 95.5606 35.4799 95.4722 35.9401 95.4892Z" fill="#10231A"></path><path d="M51.2291 95.4891C52.903 95.4891 53.8775 96.661 53.8775 98.5131V103.817H52.0388V98.8085C52.0388 97.8002 51.5967 97.1379 50.6967 97.1379C50.3492 97.1329 50.0114 97.2527 49.745 97.4755C49.4786 97.6982 49.3013 98.0091 49.2453 98.3514V103.817H47.4066V98.8085C47.4066 97.8002 46.9675 97.1379 46.0675 97.1379C45.7193 97.1318 45.3807 97.2511 45.1135 97.474C44.8464 97.6969 44.6688 98.0084 44.6131 98.3514V103.817H42.7773V95.6706H44.6131V96.3517C44.8651 96.0622 45.18 95.834 45.5338 95.6845C45.8876 95.535 46.2709 95.4681 46.6546 95.4891C47.073 95.485 47.4864 95.5809 47.8602 95.7687C48.234 95.9565 48.5574 96.2308 48.8033 96.5688C49.0981 96.2158 49.47 95.9349 49.8906 95.7478C50.3111 95.5606 50.769 95.4721 51.2291 95.4891Z" fill="#10231A"></path><path d="M61.3703 103.999C59.0736 103.999 57.4961 102.238 57.4961 99.7456C57.4961 97.2531 59.0766 95.4873 61.3703 95.4873C63.6641 95.4873 65.2446 97.2531 65.2446 99.7456C65.2446 102.238 63.6641 103.999 61.3703 103.999ZM61.3703 97.0667C60.0481 97.0667 59.3319 98.2059 59.3319 99.7456C59.3319 101.285 60.0481 102.423 61.3713 102.423C62.6945 102.423 63.4098 101.285 63.4098 99.7456C63.4098 98.2059 62.6935 97.0687 61.3703 97.0687" fill="#10231A"></path><path d="M70.8192 103.816H68.9805V91.8982H70.8192V96.3677C71.085 96.0855 71.4068 95.8618 71.7641 95.7108C72.1215 95.5599 72.5065 95.4851 72.8944 95.4912C75.2845 95.4912 76.6832 97.4166 76.6832 99.7446C76.6832 102.089 75.2845 103.998 72.8944 103.998C72.5062 104.004 72.121 103.929 71.7636 103.777C71.4062 103.626 71.0845 103.402 70.8192 103.118V103.816ZM70.8192 101.283C70.9849 101.609 71.2372 101.882 71.5485 102.073C71.8598 102.265 72.2179 102.367 72.5835 102.368C73.9991 102.368 74.8445 101.248 74.8445 99.7446C74.8445 98.2415 73.9991 97.1232 72.5835 97.1232C72.218 97.1232 71.8597 97.2242 71.5482 97.4152C71.2368 97.6061 70.9845 97.8794 70.8192 98.2048V101.283Z" fill="#10231A"></path><path d="M81.3289 94.3331C81.0301 94.3327 80.7433 94.2155 80.53 94.0067C80.3167 93.7978 80.1937 93.5139 80.1875 93.2158C80.1937 92.9176 80.3167 92.6337 80.53 92.4249C80.7433 92.216 81.0301 92.0988 81.3289 92.0984C81.6273 92.0989 81.9135 92.2162 82.126 92.4252C82.3386 92.6342 82.4604 92.918 82.4654 93.2158C82.4604 93.5135 82.3386 93.7974 82.126 94.0063C81.9135 94.2153 81.6273 94.3326 81.3289 94.3331ZM82.2458 103.817H80.407V95.6726H82.2458V103.817Z" fill="#10231A"></path><path d="M86.5469 103.816H88.3856V91.8992H86.5469V103.816Z" fill="#10231A"></path><path d="M93.6063 94.3331C93.3074 94.3327 93.0207 94.2155 92.8073 94.0067C92.594 93.7978 92.4711 93.5139 92.4648 93.2158C92.4711 92.9176 92.594 92.6337 92.8073 92.4249C93.0207 92.216 93.3074 92.0988 93.6063 92.0984C93.9046 92.0989 94.1908 92.2162 94.4034 92.4252C94.6159 92.6342 94.7378 92.918 94.7427 93.2158C94.7378 93.5135 94.6159 93.7974 94.4034 94.0063C94.1908 94.2153 93.9046 94.3326 93.6063 94.3331ZM94.5291 103.817H92.6874V95.6726H94.5291V103.817Z" fill="#10231A"></path><path d="M100.037 100.148C100.04 100.467 100.109 100.781 100.24 101.072C100.37 101.363 100.56 101.623 100.796 101.837C101.032 102.052 101.31 102.215 101.613 102.316C101.915 102.418 102.236 102.456 102.554 102.428C103.395 102.446 104.217 102.179 104.887 101.671V103.277C104.126 103.792 103.217 104.043 102.299 103.994C101.75 104.019 101.201 103.927 100.689 103.723C100.178 103.52 99.7155 103.211 99.3329 102.816C98.9504 102.421 98.6564 101.949 98.4704 101.432C98.2845 100.915 98.2108 100.365 98.2543 99.817C98.2543 97.2689 99.8179 95.4893 102.002 95.4893C104.261 95.4893 105.439 97.1004 105.439 99.4858V100.148H100.037ZM100.148 98.7541H103.695C103.707 98.5292 103.672 98.3043 103.593 98.0934C103.514 97.8825 103.392 97.6902 103.235 97.5284C103.078 97.3667 102.889 97.239 102.681 97.1534C102.472 97.0678 102.248 97.0262 102.022 97.031C101.552 97.037 101.1 97.2165 100.754 97.535C100.408 97.8534 100.192 98.2884 100.148 98.7561" fill="#10231A"></path><path d="M109.207 95.6725H111.046V96.4438C111.325 96.1396 111.665 95.8975 112.045 95.7333C112.424 95.5691 112.834 95.4866 113.247 95.491C113.645 95.4678 114.043 95.5312 114.414 95.677C114.784 95.8227 115.119 96.0473 115.393 96.3351C115.668 96.6228 115.877 96.9669 116.005 97.3433C116.134 97.7198 116.178 98.1196 116.136 98.515V103.817H114.297V98.8273C114.297 97.819 113.8 97.1567 112.754 97.1567C112.364 97.1494 111.982 97.2742 111.672 97.511C111.362 97.7478 111.141 98.0824 111.046 98.4604V103.814H109.207V95.6725Z" fill="#10231A"></path><path d="M120.32 91.8953V103.815H122.159V99.9092L125.468 103.815H127.688L123.959 99.3748L127.615 95.6717H125.32L122.159 98.9772V91.8953H120.32Z" fill="#10231A"></path><path d="M135.283 98.6074C135.283 97.6903 134.547 97.1589 133.408 97.1589C132.599 97.1603 131.809 97.411 131.147 97.8767V96.1912C131.929 95.7205 132.828 95.4799 133.74 95.4972C135.853 95.4972 137.044 96.6364 137.044 98.4904V103.812H135.283V103.356C134.701 103.776 133.995 103.989 133.277 103.961C132.899 104.001 132.517 103.963 132.155 103.848C131.793 103.734 131.458 103.546 131.172 103.296C130.886 103.046 130.654 102.74 130.492 102.397C130.33 102.054 130.241 101.681 130.23 101.302C130.23 99.7624 131.608 98.6758 133.409 98.6758C134.067 98.6723 134.714 98.8434 135.284 99.1715L135.283 98.6074ZM135.283 100.974C135.112 100.696 134.867 100.471 134.575 100.325C134.283 100.179 133.956 100.117 133.631 100.147C132.802 100.147 131.942 100.497 131.942 101.303C131.942 102.132 132.806 102.478 133.631 102.478C133.956 102.507 134.282 102.446 134.574 102.3C134.866 102.155 135.111 101.932 135.283 101.655V100.974Z" fill="#10231A"></path><path d="M141.234 95.6727H143.073V96.444C143.352 96.1398 143.693 95.8977 144.072 95.7335C144.451 95.5694 144.861 95.4868 145.275 95.4913C145.672 95.468 146.07 95.5315 146.441 95.6772C146.811 95.823 147.146 96.0476 147.421 96.3353C147.696 96.6231 147.905 96.9671 148.033 97.3436C148.161 97.72 148.206 98.1198 148.163 98.5152V103.817H146.325V98.8275C146.325 97.8192 145.828 97.1569 144.782 97.1569C144.391 97.1496 144.01 97.2745 143.7 97.5112C143.389 97.748 143.168 98.0827 143.073 98.4607V103.815H141.234V95.6727Z" fill="#10231A"></path><path d="M151.912 95.6697V97.1945H155.646L151.711 103.738V103.814H158.417V102.295H154.521L158.439 95.746V95.6697H151.912Z" fill="#10231A"></path><path d="M162.293 103.816H164.132V91.8992H162.293V103.816Z" fill="#10231A"></path><path d="M169.647 100.148C169.65 100.467 169.719 100.781 169.849 101.072C169.98 101.363 170.169 101.623 170.405 101.837C170.642 102.052 170.92 102.215 171.222 102.316C171.525 102.418 171.845 102.456 172.163 102.428C173.004 102.446 173.827 102.179 174.497 101.671V103.277C173.736 103.792 172.827 104.043 171.909 103.994C171.359 104.019 170.81 103.927 170.299 103.723C169.787 103.52 169.325 103.211 168.942 102.816C168.56 102.421 168.266 101.949 168.08 101.432C167.894 100.915 167.82 100.365 167.864 99.817C167.864 97.2689 169.427 95.4893 171.612 95.4893C173.871 95.4893 175.048 97.1004 175.048 99.4858V100.148H169.647ZM169.757 98.7541H173.305C173.316 98.5292 173.282 98.3043 173.203 98.0934C173.124 97.8825 173.002 97.6902 172.845 97.5284C172.688 97.3667 172.499 97.239 172.29 97.1534C172.081 97.0678 171.857 97.0262 171.632 97.031C171.161 97.037 170.709 97.2165 170.363 97.535C170.017 97.8534 169.801 98.2884 169.757 98.7561" fill="#10231A"></path><path d="M179.734 94.3331C179.436 94.3321 179.15 94.2146 178.938 94.0058C178.725 93.7969 178.603 93.5133 178.598 93.2158C178.603 92.9182 178.725 92.6346 178.938 92.4257C179.15 92.2169 179.436 92.0994 179.734 92.0984C180.033 92.0988 180.32 92.216 180.533 92.4249C180.746 92.6337 180.869 92.9176 180.876 93.2158C180.869 93.5139 180.746 93.7978 180.533 94.0067C180.32 94.2155 180.033 94.3327 179.734 94.3331ZM180.653 103.817H178.815V95.6726H180.653V103.817Z" fill="#10231A"></path><path d="M198.222 101.578V99.4113H196.092V97.8171H199.985V102.328C199.467 102.87 198.842 103.298 198.149 103.586C197.456 103.874 196.711 104.014 195.961 103.999C192.617 103.999 190.539 101.619 190.539 98.1849C190.498 97.4258 190.614 96.6664 190.881 95.9542C191.147 95.2421 191.559 94.5927 192.089 94.0466C192.619 93.5006 193.256 93.0699 193.961 92.7813C194.666 92.4928 195.422 92.3528 196.184 92.37C197.328 92.3357 198.453 92.6774 199.384 93.3426V95.3256C198.518 94.5127 197.372 94.0651 196.184 94.0763C193.978 94.0763 192.474 95.7638 192.474 98.1839C192.474 100.586 193.775 102.311 195.997 102.311C196.802 102.336 197.59 102.076 198.222 101.578Z" fill="#10231A"></path><path d="M212.518 95.4892C214.192 95.4892 215.167 96.6611 215.167 98.5132V103.817H213.328V98.8086C213.328 97.8003 212.886 97.138 211.986 97.138C211.638 97.1322 211.3 97.2517 211.033 97.4746C210.767 97.6975 210.59 98.0089 210.534 98.3516V103.817H208.696V98.8086C208.696 97.8003 208.257 97.138 207.357 97.138C207.008 97.1319 206.67 97.2512 206.403 97.4741C206.135 97.697 205.958 98.0085 205.902 98.3516V103.817H204.066V95.6707H205.902V96.3518C206.155 96.062 206.47 95.8336 206.824 95.6841C207.179 95.5346 207.562 95.4679 207.947 95.4892C208.365 95.4855 208.777 95.5815 209.151 95.7694C209.524 95.9572 209.847 96.2313 210.092 96.5689C210.387 96.2159 210.759 95.935 211.18 95.7479C211.6 95.5607 212.058 95.4722 212.518 95.4892Z" fill="#10231A"></path><path d="M221.194 103.816H219.355V91.8982H221.194V96.3677C221.46 96.0855 221.782 95.8618 222.139 95.7108C222.496 95.5599 222.881 95.4851 223.269 95.4912C225.66 95.4912 227.053 97.4166 227.053 99.7446C227.053 102.089 225.663 103.998 223.269 103.998C222.881 104.004 222.496 103.929 222.139 103.777C221.781 103.626 221.459 103.402 221.194 103.118V103.816ZM221.194 101.283C221.36 101.609 221.612 101.882 221.923 102.073C222.235 102.265 222.593 102.367 222.959 102.368C224.374 102.368 225.219 101.248 225.219 99.7446C225.219 98.2415 224.374 97.1232 222.959 97.1232C222.593 97.1232 222.235 97.2242 221.923 97.4152C221.612 97.6061 221.359 97.8794 221.194 98.2048V101.283Z" fill="#10231A"></path><path d="M238.482 92.5554V97.1925H232.805V92.5554H230.895V103.819H232.805V98.8819H238.482V103.819H240.399V92.5554H238.482Z" fill="#10231A"></path><path d="M92.0742 26.0389H111.268V15.7278H92.0742V26.0389ZM100.278 24.1958H94.7981V18.1816H100.278V24.1958ZM108.622 24.1958H103.148V18.1816H108.627L108.622 24.1958Z" fill="#10231A"></path><path d="M152.551 44.574H171.747V28.9685H152.551V44.574ZM163.536 31.7614H169.041V41.7979H163.536V31.7614ZM155.179 31.7614H160.685V41.7979H155.179V31.7614Z" fill="#10231A"></path><path d="M92.0742 44.5742H111.271V28.9688H92.0742V44.5742ZM103.059 31.7617H108.565V41.7982H103.059V31.7617ZM94.7027 31.7617H100.208V41.7982H94.7027V31.7617Z" fill="#10231A"></path><path d="M131.923 28.9675H114.625V44.573H128.526V35.3128C128.522 34.4147 128.87 33.5506 129.495 32.9048C130.12 32.259 130.974 31.8825 131.873 31.8556H131.902H131.924H131.955C132.854 31.8835 133.706 32.2605 134.33 32.9062C134.955 33.5519 135.302 34.4154 135.299 35.3128V44.573H149.199V28.9675H131.923ZM124.786 41.7999H119.307V31.7605H124.786V41.7999ZM144.517 41.7999H139.038V31.7605H144.517V41.7999Z" fill="#10231A"></path><path d="M152.559 26.0389H171.748V15.7278H152.559V26.0389ZM160.673 24.1958H155.193V18.1816H160.673V24.1958ZM169.024 24.1958H163.545V18.1816H169.024V24.1958Z" fill="#10231A"></path><path d="M131.9 15.7258H114.664V26.037H149.154V15.7258H131.921H131.9ZM124.778 24.1948H119.298V18.1807H124.778V24.1948ZM139.044 18.1807H144.523V24.1948H139.044V18.1807ZM134.434 18.1807V24.1919H129.385V18.1777H134.43L134.434 18.1807Z" fill="#10231A"></path><path d="M172.159 10.3917L168.752 10.6653L149.234 2.1438H145.459V0.474187L141.617 0.00225427V2.11306H137.523L137.487 2.07737C135.967 0.696672 133.972 -0.046484 131.917 0.00225427H131.902C129.847 -0.046484 127.852 0.696672 126.332 2.07737L126.296 2.11306H122.202V0.00225427L118.355 0.786495V2.1438H114.58L95.069 10.6703L92.1703 10.4343L90.8789 12.9437H172.94L172.159 10.3917Z" fill="#10231A"></path><path d="M131.943 47.1827H89.6641L89.6829 51.2675H131.943L173.781 50.8709L173.8 46.7891L131.943 47.1827Z" fill="#10231A"></path></svg> 